<svg width="1882" height="1601" version="1.1" xmlns="http://www.w3.org/2000/svg" desc="Created with imagetracer.js version 1.2.6" ><path fill="rgb(32,44,96)" stroke="rgb(32,44,96)" stroke-width="1" opacity="1" d="M 1157.5 0 L 1171.5 0 Q 1181.1 2.4 1186 9.5 L 1878 1161.5 L 1882 1171.5 L 1882 1180.5 Q 1879.4 1192.4 1870.5 1198 L 1860.5 1202 L 1648.5 1202 Q 1639.1 1199.9 1634 1193.5 L 1169 462.5 L 1156.5 447 L 1147.5 443 L 1137.5 443 Q 1127.3 445.8 1122 453.5 L 1042 555.5 L 1036 567.5 L 1036 577.5 L 1051 605.5 L 1377 1164.5 Q 1380.4 1170.6 1379 1181.5 Q 1376.9 1190.9 1370.5 1196 L 1358.5 1202 L 1136.5 1202 Q 1124.6 1199.4 1119 1190.5 L 706 475.5 L 696 458.5 L 690.5 452 Q 684.6 445.9 672.5 446 Q 661.2 448.2 655 455.5 L 371 943.5 L 366 954.5 L 366 963.5 Q 368.6 974.4 376.5 980 L 385.5 984 L 403.5 984 L 404.5 985 L 451.5 985 L 452.5 986 L 500.5 986 L 501.5 987 L 548.5 987 L 549.5 988 L 621.5 989 Q 633.4 986.4 639 977.5 L 643 967.5 L 643 960.5 Q 640.4 948.6 631.5 943 L 621.5 939 L 509.5 937 L 508.5 936 L 468.5 936 L 457.5 933 L 448 924.5 L 444 914.5 L 444 904.5 L 448 894.5 L 533 744.5 L 541.5 735 L 550.5 731 L 646.5 731 L 647.5 732 L 768.5 732 L 778.5 735 L 788 743.5 L 1022 1158.5 L 1027 1169.5 L 1028 1177.5 L 1025 1188.5 L 1016.5 1198 L 1006.5 1202 L 20.5 1202 Q 9.4 1199.6 4 1191.5 L 0 1183.5 L 0 1169.5 L 5 1158.5 L 656 20.5 L 665.5 8 L 676.5 3 L 686.5 3 Q 697.4 5.6 703 13.5 L 885 320.5 L 892.5 329 Q 898.4 334.1 909.5 334 Q 922.3 331.8 928 322.5 L 1143 10.5 L 1149.5 4 L 1157.5 0 Z " /><path fill="rgb(32,44,96)" stroke="rgb(32,44,96)" stroke-width="1" opacity="1" d="M 240.5 1327 L 315.5 1327 L 316.5 1328 L 358.5 1329 L 359.5 1330 L 383.5 1332 L 409.5 1339 Q 422.8 1344.2 431 1354.5 Q 439.2 1363.8 442 1378.5 L 443 1390.5 L 444 1391.5 L 444 1404.5 L 445 1405.5 L 445 1424 L 366.5 1424 L 366 1423.5 L 366 1413.5 L 364 1405.5 L 359.5 1401 L 347.5 1397 L 328.5 1396 L 327.5 1395 L 227.5 1395 L 226.5 1396 L 216.5 1396 L 203.5 1399 Q 194.8 1402.3 190 1409.5 L 187 1416.5 L 185 1426.5 L 185 1439.5 L 184 1440.5 L 184 1483.5 L 185 1484.5 L 185 1501.5 L 186 1502.5 L 187 1514.5 Q 189.4 1524.6 196.5 1530 L 205.5 1534 L 220.5 1535 L 221.5 1536 L 315.5 1537 L 316.5 1536 L 338.5 1536 L 339.5 1535 L 352.5 1534 Q 361.8 1532.3 366 1525.5 L 368 1519.5 L 368 1500 L 266 1500 L 266 1446 L 444.5 1446 L 445 1446.5 L 445 1498.5 L 444 1499.5 L 443 1539.5 L 440 1554.5 Q 434.5 1572 421.5 1582 Q 411.9 1589.4 398.5 1593 L 364.5 1599 L 334.5 1600 L 333.5 1601 L 212.5 1601 L 211.5 1600 L 182.5 1599 L 155.5 1594 Q 132.2 1587.3 119 1570.5 L 112 1556.5 L 107 1529.5 L 106 1486.5 L 105 1485.5 L 105 1438.5 L 106 1437.5 L 107 1401.5 L 112 1375.5 Q 117 1359 128.5 1349 L 142.5 1340 L 156.5 1335 L 170.5 1332 L 183.5 1331 L 184.5 1330 L 193.5 1330 L 194.5 1329 L 239.5 1328 L 240.5 1327 Z " /><path fill="rgb(32,44,96)" stroke="rgb(32,44,96)" stroke-width="1" opacity="1" d="M 591 1331 L 672.5 1331 L 673 1331.5 L 673 1597 L 591.5 1597 L 591 1596.5 L 591 1331 Z " /><path fill="rgb(32,44,96)" stroke="rgb(32,44,96)" stroke-width="1" opacity="1" d="M 824 1331 L 965.5 1331 L 967 1332.5 L 1041.5 1502 L 1117 1331 L 1259 1331 L 1259 1597 L 1181 1597 L 1181 1553.5 L 1182 1552.5 L 1182 1449.5 L 1183 1448.5 L 1183 1399 L 1171.5 1399 L 1170 1400.5 L 1075 1597 L 1008.5 1597 L 1008 1595.5 L 913 1399 L 900.5 1399 L 900 1399.5 L 900 1499.5 L 901 1500.5 L 901 1597 L 824.5 1597 L 824 1596.5 L 824 1331 Z " /><path fill="rgb(32,44,96)" stroke="rgb(32,44,96)" stroke-width="1" opacity="1" d="M 1520.5 1331 L 1641.5 1331 L 1643 1332.5 L 1776 1597 L 1686.5 1597 L 1685 1595.5 L 1663.5 1552 L 1496.5 1552 L 1496 1553.5 L 1475 1597 L 1384 1596.5 L 1517 1335.5 L 1520.5 1331 Z M 1574 1394 L 1525 1492 L 1526 1493 L 1636 1493 L 1588 1396 L 1588 1394 L 1574 1394 Z " /><path fill="rgb(0,0,0)" stroke="rgb(0,0,0)" stroke-width="1" opacity="0" d="M 0 0 L 1157 0.5 Q 1147.8 3.3 1143 10.5 L 935 312.5 L 920.5 330 Q 914.8 333.8 905.5 334 L 895.5 331 L 887 323.5 L 705 16.5 L 697.5 8 L 686.5 3 L 676.5 3 Q 666.4 5.4 661 12.5 L 5 1158.5 L 0.5 1169 L 0 0 Z " /><path fill="rgb(0,0,0)" stroke="rgb(0,0,0)" stroke-width="1" opacity="0" d="M 1172.5 0 L 1882 0 L 1882 1170.5 L 1881 1170.5 L 1878 1161.5 L 1818 1061.5 L 1188 12.5 L 1180.5 4 L 1172.5 1 L 1172.5 0 Z " /><path fill="rgb(0,0,0)" stroke="rgb(0,0,0)" stroke-width="1" opacity="0" d="M 1137.5 443 Q 1156.7 441.8 1163 453.5 L 1631 1189.5 L 1636.5 1196 L 1648.5 1202 L 1860.5 1202 Q 1872.4 1199.4 1878 1190.5 L 1881.5 1181 L 1882 1601 L 334 1600.5 L 364.5 1599 L 398.5 1593 Q 418.6 1587.6 430 1573.5 L 439 1557.5 L 443 1539.5 L 444 1499.5 L 445 1498.5 L 445 1446 L 266.5 1446 L 266 1446.5 L 266 1500 L 367.5 1500 L 368 1500.5 L 368 1519.5 Q 366.6 1527.6 360.5 1531 L 352.5 1534 L 339.5 1535 L 338.5 1536 L 262.5 1537 L 261.5 1536 L 221.5 1536 L 220.5 1535 L 210.5 1535 L 196.5 1530 L 192 1525.5 L 187 1514.5 L 186 1502.5 L 185 1501.5 L 184 1440.5 L 185 1439.5 L 185 1426.5 L 188 1413.5 Q 191 1406 197.5 1402 L 211.5 1397 L 226.5 1396 L 227.5 1395 L 327.5 1395 L 328.5 1396 L 340.5 1396 L 355.5 1399 L 364 1405.5 L 366 1413.5 L 366 1424 L 444.5 1424 L 445 1423.5 L 445 1405.5 L 444 1404.5 L 443 1383.5 L 438 1365.5 Q 432.6 1354.4 423.5 1347 Q 412.7 1338.8 397.5 1335 L 368.5 1330 L 344.5 1329 L 343.5 1328 L 316.5 1328 L 315.5 1327 L 240.5 1327 L 239.5 1328 L 194.5 1329 L 193.5 1330 L 184.5 1330 L 183.5 1331 L 176.5 1331 L 160.5 1334 L 138.5 1342 L 124 1353.5 L 115 1367.5 L 108 1393.5 L 107 1411.5 L 106 1412.5 L 106 1437.5 L 105 1438.5 L 105 1485.5 L 106 1486.5 L 107 1529.5 L 112 1556.5 Q 117.3 1572.3 129.5 1581 L 146.5 1591 L 163.5 1596 L 181.5 1598 L 182.5 1599 L 212 1600.5 L 0 1601 L 0.5 1184 Q 3.3 1193.2 10.5 1198 L 20.5 1202 L 1006.5 1202 Q 1017.6 1199.6 1023 1191.5 L 1027 1183.5 L 1028 1175.5 L 1026 1166.5 L 1017 1149.5 L 796 757.5 L 788 743.5 L 781.5 737 L 776.5 734 L 768.5 732 L 550.5 731 Q 540.3 733.8 535 741.5 L 448 894.5 L 444 904.5 L 444 914.5 Q 446.4 925.6 454.5 931 L 459.5 934 L 468.5 936 L 508.5 936 L 509.5 937 L 621.5 939 Q 633.4 941.6 639 950.5 L 643 960.5 L 643 967.5 Q 640.4 979.4 631.5 985 L 621.5 989 L 597.5 989 L 596.5 988 L 549.5 988 L 548.5 987 L 501.5 987 L 500.5 986 L 452.5 986 L 451.5 985 L 385.5 984 Q 375.9 981.6 371 974.5 Q 364.8 968.2 366 954.5 L 375 936.5 L 640 480.5 L 653 458.5 L 658.5 452 Q 664.4 445.9 676.5 446 Q 687.8 448.2 694 455.5 L 1109 1173.5 L 1119 1190.5 L 1126.5 1198 L 1136.5 1202 L 1358.5 1202 Q 1367.9 1199.9 1373 1193.5 L 1379 1181.5 L 1379 1170.5 L 1373 1157.5 L 1040 586.5 L 1036 577.5 L 1036 567.5 L 1042 555.5 L 1122 453.5 L 1128.5 447 L 1137.5 443 Z M 591 1331 L 591 1597 L 592 1597 L 673 1597 L 673 1332 L 673 1331 L 591 1331 Z M 824 1331 L 824 1597 L 825 1597 L 901 1597 L 901 1501 L 900 1500 L 900 1400 L 901 1399 L 913 1399 L 1008 1596 L 1009 1597 L 1075 1597 L 1170 1401 L 1172 1399 L 1183 1399 L 1183 1449 L 1182 1450 L 1182 1553 L 1181 1554 L 1181 1597 L 1259 1597 L 1259 1331 L 1117 1331 L 1042 1502 L 967 1333 L 966 1331 L 824 1331 Z M 1521 1331 L 1517 1336 L 1384 1597 L 1475 1597 L 1496 1554 L 1497 1552 L 1664 1552 L 1685 1596 L 1687 1597 L 1776 1597 L 1643 1333 L 1642 1331 L 1521 1331 Z " /><path fill="rgb(0,0,0)" stroke="rgb(0,0,0)" stroke-width="1" opacity="0" d="M 1573.5 1394 L 1587.5 1394 L 1588 1395.5 L 1636 1493 L 1525.5 1493 L 1525 1491.5 L 1573.5 1394 Z " /></svg>